<svg width="118" height="18" viewBox="0 0 118 18" fill="none" xmlns="http://www.w3.org/2000/svg">
<path d="M3.17995 16.9346C2.00758 16.6188 1.05054 16.2121 0.308838 15.7144L2.06978 12.3696C2.86891 12.8816 3.72067 13.2692 4.62507 13.5324C5.52947 13.7956 6.43387 13.9295 7.33827 13.9295C8.19482 13.9295 8.86474 13.8051 9.33848 13.5563C9.81221 13.3075 10.0515 12.9629 10.0515 12.5275C10.0515 12.1494 9.83614 11.8576 9.40548 11.647C8.97481 11.4365 8.30966 11.2115 7.40526 10.9675C6.38123 10.6947 5.52947 10.422 4.84997 10.1444C4.17048 9.86691 3.58668 9.44103 3.09859 8.86681C2.6105 8.29259 2.36169 7.54132 2.36169 6.6082C2.36169 5.4789 2.67271 4.48837 3.29 3.63661C3.90729 2.78485 4.78777 2.12449 5.93143 1.66033C7.07509 1.19138 8.41494 0.961685 9.95098 0.961685C11.0803 0.961685 12.133 1.07653 13.114 1.311C14.095 1.54548 14.9371 1.88044 15.6453 2.31589L14.0184 5.63681C13.4011 5.24443 12.7216 4.94774 11.9751 4.74676C11.2286 4.541 10.463 4.44052 9.68301 4.44052C8.79297 4.44052 8.09912 4.58407 7.59189 4.87118C7.08944 5.15829 6.83582 5.52675 6.83582 5.97656C6.83582 6.36894 7.05595 6.67041 7.4914 6.88096C7.92686 7.09151 8.60635 7.31641 9.52511 7.56045C10.5491 7.81407 11.3961 8.07725 12.066 8.35C12.736 8.62276 13.3102 9.03429 13.7935 9.59415C14.2768 10.154 14.5161 10.8814 14.5161 11.7858C14.5161 12.9007 14.205 13.8817 13.5781 14.7335C12.9513 15.5852 12.066 16.2456 10.9128 16.7097C9.75958 17.1787 8.42451 17.4084 6.90282 17.4084C5.59647 17.4132 4.35232 17.2552 3.17995 16.9346Z" fill="white"/>
<path d="M37.1354 1.27753L34.0154 17.0926H29.881L31.508 8.75676L26.2443 15.5374H24.2776L21.4065 8.75676L19.7364 17.0926H15.626L18.789 1.27753H22.4257L26.1294 10.4268L33.312 1.27753H37.1354Z" fill="white"/>
<path d="M48.5671 14.0205H41.8344L40.0064 17.0926H35.2834L45.428 1.27753H49.8352L53.6538 17.0926H49.2035L48.5671 14.0205ZM47.8924 10.7235L46.8301 5.59377L43.8011 10.7235H47.8924Z" fill="white"/>
<path d="M70.0767 10.0584C69.3111 11.1063 68.2296 11.872 66.8467 12.3505L69.536 17.0974H64.8609L62.5113 12.896H60.2527L59.4153 17.0974H54.9412L58.1042 1.28234H64.8609C66.8802 1.28234 68.445 1.72737 69.5599 2.61741C70.6749 3.50746 71.2299 4.74203 71.2299 6.32114C71.2299 7.76148 70.8471 9.01041 70.0767 10.0584ZM66.0571 5.28754C65.6217 4.96215 65.0092 4.79945 64.2292 4.79945H61.8797L60.9322 9.43151H63.5976C64.5929 9.43151 65.3585 9.19704 65.904 8.73288C66.4447 8.26393 66.7175 7.60357 66.7175 6.74224C66.7127 6.10102 66.4926 5.61293 66.0571 5.28754Z" fill="white"/>
<path d="M77.24 4.82816H72.3831L73.1056 1.28234H87.2698L86.5472 4.82816H81.7142L79.2498 17.0974H74.7756L77.24 4.82816Z" fill="white"/>
<path d="M100.625 4.73721L101.324 1.27753H88.9446L88.2507 4.73721H92.7153H100.625Z" fill="url(#paint0_linear)"/>
<path d="M118 1.27758H112.938L108.918 5.81872L106.612 1.27758H101.845L105.889 8.91473L107.856 12.3505L110.248 17.0974H115.086L110.794 9.16356L118 1.27758Z" fill="url(#paint1_linear)"/>
<path d="M98.3667 17.0974H103.721L107.081 13.2406H101.913L98.3667 17.0974Z" fill="url(#paint2_linear)"/>
<path d="M87.5379 8.30213L85.7817 17.0973H90.2511L91.3373 11.6709H98.295L98.9793 8.30213H87.5379Z" fill="url(#paint3_linear)"/>
<defs>
<linearGradient id="paint0_linear" x1="88.2516" y1="3.00794" x2="101.324" y2="3.00794" gradientUnits="userSpaceOnUse">
<stop stop-color="#007EE9"/>
<stop offset="0.1539" stop-color="#0081E9"/>
<stop offset="0.2145" stop-color="#0085E9"/>
<stop offset="0.3917" stop-color="#359AF7"/>
<stop offset="0.5152" stop-color="#55A7FF"/>
<stop offset="0.6055" stop-color="#4FA2FD"/>
<stop offset="0.7281" stop-color="#3E93F9"/>
<stop offset="0.8685" stop-color="#217CF2"/>
<stop offset="1" stop-color="#0060E9"/>
</linearGradient>
<linearGradient id="paint1_linear" x1="101.844" y1="9.18743" x2="117.999" y2="9.18743" gradientUnits="userSpaceOnUse">
<stop stop-color="#007EE9"/>
<stop offset="0.1539" stop-color="#0081E9"/>
<stop offset="0.2145" stop-color="#0085E9"/>
<stop offset="0.3917" stop-color="#359AF7"/>
<stop offset="0.5152" stop-color="#55A7FF"/>
<stop offset="0.6055" stop-color="#4FA2FD"/>
<stop offset="0.7281" stop-color="#3E93F9"/>
<stop offset="0.8685" stop-color="#217CF2"/>
<stop offset="1" stop-color="#0060E9"/>
</linearGradient>
<linearGradient id="paint2_linear" x1="98.3651" y1="15.1673" x2="107.079" y2="15.1673" gradientUnits="userSpaceOnUse">
<stop stop-color="#007EE9"/>
<stop offset="0.1539" stop-color="#0081E9"/>
<stop offset="0.2145" stop-color="#0085E9"/>
<stop offset="0.3917" stop-color="#359AF7"/>
<stop offset="0.5152" stop-color="#55A7FF"/>
<stop offset="0.6055" stop-color="#4FA2FD"/>
<stop offset="0.7281" stop-color="#3E93F9"/>
<stop offset="0.8685" stop-color="#217CF2"/>
<stop offset="1" stop-color="#0060E9"/>
</linearGradient>
<linearGradient id="paint3_linear" x1="85.7799" y1="12.6996" x2="98.9792" y2="12.6996" gradientUnits="userSpaceOnUse">
<stop stop-color="#007EE9"/>
<stop offset="0.1539" stop-color="#0081E9"/>
<stop offset="0.2145" stop-color="#0085E9"/>
<stop offset="0.3917" stop-color="#359AF7"/>
<stop offset="0.5152" stop-color="#55A7FF"/>
<stop offset="0.6055" stop-color="#4FA2FD"/>
<stop offset="0.7281" stop-color="#3E93F9"/>
<stop offset="0.8685" stop-color="#217CF2"/>
<stop offset="1" stop-color="#0060E9"/>
</linearGradient>
</defs>
</svg>
