<svg width="1920" height="559" viewBox="0 0 1920 559" fill="none" xmlns="http://www.w3.org/2000/svg">
<g opacity="0.2">
<g clip-path="url(#clip0)">
<path d="M15.8768 227.745H0.605957V307.74H15.8768V227.745Z" fill="#4288F3"/>
<path d="M16.4828 308.346H0V227.139H16.4828V308.346ZM1.21197 307.134H15.2708V228.351H1.21197V307.134Z" fill="#4288F3"/>
<path d="M8.84747 122.296H7.6355V227.745H8.84747V122.296Z" fill="#4288F3"/>
<path d="M8.84747 307.74H7.6355V319.861H8.84747V307.74Z" fill="#4288F3"/>
<path d="M64.1131 319.134H48.8423V429.31H64.1131V319.134Z" fill="#4288F3"/>
<path d="M64.7191 430.037H48.2363V318.649H64.7191V430.037ZM49.4483 428.825H63.5071V319.861H49.4483V428.825Z" fill="#4288F3"/>
<path d="M57.0838 300.832H55.8718V319.134H57.0838V300.832Z" fill="#4288F3"/>
<path d="M57.0838 429.431H55.8718V461.672H57.0838V429.431Z" fill="#4288F3"/>
<path d="M88.1102 429.067H72.8394V509.063H88.1102V429.067Z" fill="#4288F3"/>
<path d="M88.8374 509.669H72.2334V428.461H88.7162V509.669H88.8374ZM73.4454 508.457H87.5042V429.673H73.4454V508.457Z" fill="#4288F3"/>
<path d="M81.202 410.765H79.99V429.067H81.202V410.765Z" fill="#4288F3"/>
<path d="M81.202 509.063H79.99V551.121H81.202V509.063Z" fill="#4288F3"/>
<path d="M136.346 419.007H121.076V426.401H136.346V419.007Z" fill="#4288F3"/>
<path d="M136.952 427.007H120.47V418.401H136.952V427.007ZM121.682 425.795H135.741V419.613H121.682V425.795Z" fill="#4288F3"/>
<path d="M129.317 410.765H128.105V419.007H129.317V410.765Z" fill="#4288F3"/>
<path d="M129.317 426.401H128.105V492.579H129.317V426.401Z" fill="#4288F3"/>
<path opacity="0.5" d="M184.462 365.192H169.191V372.585H184.462V365.192Z" fill="#4288F3"/>
<path d="M185.189 373.192H168.706V364.586H185.189V373.192ZM169.797 371.979H183.856V365.798H169.797V371.979Z" fill="#4288F3"/>
<path d="M177.554 320.709H176.342V365.313H177.554V320.709Z" fill="#4288F3"/>
<path d="M177.554 372.585H176.342V424.704H177.554V372.585Z" fill="#4288F3"/>
<path d="M256.816 464.701H241.545V472.095H256.816V464.701Z" fill="#4288F3"/>
<path d="M257.422 472.701H240.939V464.095H257.422V472.701ZM242.151 471.489H256.21V465.308H242.151V471.489Z" fill="#4288F3"/>
<path d="M249.787 446.278H248.575V464.58H249.787V446.278Z" fill="#4288F3"/>
<path d="M249.787 472.095H248.575V528.213H249.787V472.095Z" fill="#4288F3"/>
<path opacity="0.5" d="M160.465 372.585H145.194V426.401H160.465V372.585Z" fill="#4288F3"/>
<path d="M161.071 427.007H144.588V371.979H161.071V427.007ZM145.8 425.795H159.859V373.192H145.8V425.795Z" fill="#4288F3"/>
<path d="M153.435 364.344H152.223V372.585H153.435V364.344Z" fill="#4288F3"/>
<path d="M153.435 426.401H152.223V543H153.435V426.401Z" fill="#4288F3"/>
<path d="M208.58 365.192H193.309V384.706H208.58V365.192Z" fill="#4288F3"/>
<path d="M209.307 385.312H192.703V364.586H209.186V385.312H209.307ZM193.915 384.1H207.974V365.798H193.915V384.1Z" fill="#4288F3"/>
<path d="M201.55 359.01H200.338V365.313H201.55V359.01Z" fill="#4288F3"/>
<path d="M201.55 384.706H200.338V483.125H201.55V384.706Z" fill="#4288F3"/>
<path opacity="0.5" d="M97.0253 509.026H112.296L112.296 418.971H97.0253L97.0253 509.026Z" fill="#4288F3"/>
<path d="M112.834 509.669H96.3516V418.401H112.834V509.669ZM97.5635 508.457H111.622V419.613H97.5635V508.457Z" fill="#4288F3"/>
<path d="M105.199 509.063H103.987V521.426H105.199V509.063Z" fill="#4288F3"/>
<path d="M105.199 389.069H103.987V419.007H105.199V389.069Z" fill="#4288F3"/>
<path opacity="0.5" d="M265.589 472.031H280.86V345.735H265.589V472.031Z" fill="#4288F3"/>
<path d="M281.54 472.701H265.057V345.193H281.54V472.701ZM266.269 471.489H280.328V346.405H266.269V471.489Z" fill="#4288F3"/>
<path d="M273.905 472.095H272.693V484.458H273.905V472.095Z" fill="#4288F3"/>
<path d="M273.905 325.921H272.693V345.799H273.905V325.921Z" fill="#4288F3"/>
<path opacity="0.5" d="M289.774 345.699H305.044V223.403H289.774V345.699Z" fill="#4288F3"/>
<path d="M305.659 346.405H289.176V222.896H305.659V346.405ZM290.267 345.193H304.325V224.109H290.267V345.193Z" fill="#4288F3"/>
<path d="M297.902 345.799H296.69V384.342H297.902V345.799Z" fill="#4288F3"/>
<path d="M297.902 215.745H296.69V223.503H297.902V215.745Z" fill="#4288F3"/>
<path opacity="0.5" d="M313.837 223.415H329.107V205.719H313.837V223.415Z" fill="#4288F3"/>
<path d="M329.655 224.109H313.173V205.2H329.655V224.109ZM314.385 222.896H328.443V206.412H314.385V222.896Z" fill="#4288F3"/>
<path d="M322.02 223.503H320.808V274.167H322.02V223.503Z" fill="#4288F3"/>
<path d="M322.02 151.628H320.808V205.685H322.02V151.628Z" fill="#4288F3"/>
<path opacity="0.5" d="M337.9 205.799H353.171V163.983H337.9V205.799Z" fill="#4288F3"/>
<path d="M353.774 206.413H337.291V163.385H353.774V206.413ZM338.503 205.201H352.562V164.597H338.503V205.201Z" fill="#4288F3"/>
<path d="M346.138 205.807H344.926V230.169H346.138V205.807Z" fill="#4288F3"/>
<path d="M346.138 127.993H344.926V163.991H346.138V127.993Z" fill="#4288F3"/>
<path d="M361.963 175.56H377.234V163.924H361.963V175.56Z" fill="#4288F3"/>
<path d="M377.892 176.111H361.409V163.263H377.892V176.111ZM362.621 174.899H376.68V164.475H362.621V174.899Z" fill="#4288F3"/>
<path d="M370.256 175.505H369.044V215.988H370.256V175.505Z" fill="#4288F3"/>
<path d="M370.256 148.113H369.044V163.87H370.256V148.113Z" fill="#4288F3"/>
<path d="M434.274 293.084H449.545V287.509H434.274V293.084Z" fill="#4288F3"/>
<path d="M450.125 293.681H433.642V286.893H450.125V293.681ZM434.854 292.469H448.913V288.105H434.854V292.469Z" fill="#4288F3"/>
<path d="M442.49 293.074H441.278V331.618H442.49V293.074Z" fill="#4288F3"/>
<path d="M442.49 271.742H441.278V287.499H442.49V271.742Z" fill="#4288F3"/>
<path d="M458.337 300.697H473.608V293.061H458.337V300.697Z" fill="#4288F3"/>
<path d="M474.243 301.316H457.76V292.469H474.243V301.316ZM458.972 300.104H473.031V293.681H458.972V300.104Z" fill="#4288F3"/>
<path d="M466.608 300.71H465.396V317.073H466.608V300.71Z" fill="#4288F3"/>
<path d="M466.608 269.197H465.396V293.075H466.608V269.197Z" fill="#4288F3"/>
<path opacity="0.5" d="M482.521 300.651H497.792V256.774H482.521V300.651Z" fill="#4288F3"/>
<path d="M498.361 301.316H481.879V256.228H498.361V301.316ZM482.969 300.104H497.028V257.44H482.969V300.104Z" fill="#4288F3"/>
<path d="M490.726 300.71H489.514V308.952H490.726V300.71Z" fill="#4288F3"/>
<path d="M490.726 243.017H489.514V256.834H490.726V243.017Z" fill="#4288F3"/>
<path opacity="0.5" d="M506.585 256.777H521.855V239.081H506.585V256.777Z" fill="#4288F3"/>
<path d="M522.48 257.44H505.997V238.532H522.48V257.44ZM507.088 256.228H521.146V239.744H507.088V256.228Z" fill="#4288F3"/>
<path d="M514.723 256.834H513.511V269.197H514.723V256.834Z" fill="#4288F3"/>
<path d="M514.723 215.26H513.511V239.138H514.723V215.26Z" fill="#4288F3"/>
<path opacity="0.5" d="M530.648 184.502H545.918V164.746H530.648V184.502Z" fill="#4288F3"/>
<path d="M546.476 185.08H529.994V164.112H546.476V185.08ZM531.206 183.868H545.264V165.324H531.206V183.868Z" fill="#4288F3"/>
<path d="M538.841 184.474H537.629V196.837H538.841V184.474Z" fill="#4288F3"/>
<path d="M538.841 122.781H537.629V164.839H538.841V122.781Z" fill="#4288F3"/>
<path opacity="0.5" d="M554.711 164.857H569.982V128.98H554.711V164.857Z" fill="#4288F3"/>
<path d="M570.595 165.445H554.112V128.356H570.595V165.445ZM555.324 164.233H569.383V129.568H555.324V164.233Z" fill="#4288F3"/>
<path d="M562.959 164.839H561.747V213.443H562.959V164.839Z" fill="#4288F3"/>
<path d="M562.959 97.0852H561.747V128.962H562.959V97.0852Z" fill="#4288F3"/>
<path d="M602.958 165.232H618.229V121.356H602.958V165.232Z" fill="#4288F3"/>
<path d="M618.831 165.93H602.348V120.842H618.831V165.93ZM603.439 164.718H617.498V122.054H603.439V164.718Z" fill="#4288F3"/>
<path d="M611.195 165.324H609.983V180.353H611.195V165.324Z" fill="#4288F3"/>
<path d="M611.195 115.63H609.983V121.326H611.195V115.63Z" fill="#4288F3"/>
<path d="M627.022 174.861H642.293V165.286H627.022V174.861Z" fill="#4288F3"/>
<path d="M642.828 175.505H626.345V164.718H642.828V175.505ZM627.557 174.293H641.616V165.93H627.557V174.293Z" fill="#4288F3"/>
<path d="M635.193 174.899H633.981V195.989H635.193V174.899Z" fill="#4288F3"/>
<path d="M635.193 137.447H633.981V165.324H635.193V137.447Z" fill="#4288F3"/>
<path opacity="0.5" d="M651.085 174.931H666.356V151.175H651.085V174.931Z" fill="#4288F3"/>
<path d="M666.946 175.505H650.463V150.537H666.946V175.505ZM651.675 174.293H665.734V151.749H651.675V174.293Z" fill="#4288F3"/>
<path d="M659.311 174.899H658.099V183.868H659.311V174.899Z" fill="#4288F3"/>
<path d="M659.311 143.386H658.099V151.143H659.311V143.386Z" fill="#4288F3"/>
<path d="M675.148 233.393H690.419V151.215H675.148V233.393Z" fill="#4288F3"/>
<path d="M691.064 233.926H674.582V150.537H691.064V233.926ZM675.794 232.714H689.852V151.749H675.794V232.714Z" fill="#4288F3"/>
<path d="M683.429 233.32H682.217V246.411H683.429V233.32Z" fill="#4288F3"/>
<path d="M683.429 127.265H682.217V151.143H683.429V127.265Z" fill="#4288F3"/>
<path d="M699.332 287.373H714.603V233.437H699.332V287.373Z" fill="#4288F3"/>
<path d="M715.182 287.984H698.7V232.835H715.182V287.984ZM699.791 286.772H713.849V234.048H699.791V286.772Z" fill="#4288F3"/>
<path d="M707.547 287.378H706.335V329.8H707.547V287.378Z" fill="#4288F3"/>
<path d="M707.547 203.746H706.335V233.32H707.547V203.746Z" fill="#4288F3"/>
<path opacity="0.5" d="M723.396 287.336H738.667V251.459H723.396V287.336Z" fill="#4288F3"/>
<path d="M739.301 287.984H722.818V250.895H739.301V287.984ZM723.909 286.772H738.089V252.107H724.03V286.772H723.909Z" fill="#4288F3"/>
<path d="M731.544 287.378H730.332V351.98H731.544V287.378Z" fill="#4288F3"/>
<path d="M731.544 242.047H730.332V251.501H731.544V242.047Z" fill="#4288F3"/>
<path d="M762.692 251.501H747.421V271.257H762.692V251.501Z" fill="#4288F3"/>
<path d="M763.298 271.864H746.815V250.895H763.298V271.864ZM748.027 270.652H762.086V252.107H748.027V270.652Z" fill="#4288F3"/>
<path d="M755.662 227.502H754.45V251.501H755.662V227.502Z" fill="#4288F3"/>
<path d="M755.662 271.258H754.45V287.984H755.662V271.258Z" fill="#4288F3"/>
<path d="M786.81 271.258H771.539V292.953H786.81V271.258Z" fill="#4288F3"/>
<path d="M787.416 293.559H770.933V270.652H787.416V293.559ZM772.145 292.347H786.204V271.864H772.145V292.347Z" fill="#4288F3"/>
<path d="M779.781 243.138H778.569V271.136H779.781V243.138Z" fill="#4288F3"/>
<path d="M779.781 292.953H778.569V303.619H779.781V292.953Z" fill="#4288F3"/>
<path d="M810.928 292.953H795.657V304.589H810.928V292.953Z" fill="#4288F3"/>
<path d="M811.534 305.195H795.051V292.347H811.534V305.195ZM796.263 303.983H810.322V293.559H796.263V303.983Z" fill="#4288F3"/>
<path d="M803.898 279.015H802.687V292.953H803.898V279.015Z" fill="#4288F3"/>
<path d="M803.898 304.589H802.687V323.255H803.898V304.589Z" fill="#4288F3"/>
<path d="M834.925 304.589H819.654V412.947H834.925V304.589Z" fill="#4288F3"/>
<path d="M835.652 413.553H819.169V303.983H835.652V413.553ZM820.26 412.341H834.319V305.195H820.26V412.341Z" fill="#4288F3"/>
<path d="M827.896 292.59H826.684V304.468H827.896V292.59Z" fill="#4288F3"/>
<path d="M827.896 412.947H826.684V421.553H827.896V412.947Z" fill="#4288F3"/>
<path opacity="0.5" d="M578.774 128.946H594.045V121.31H578.774V128.946Z" fill="#4288F3"/>
<path d="M594.713 129.568H578.23V120.72H594.713V129.568ZM579.442 128.356H593.501V121.932H579.442V128.356Z" fill="#4288F3"/>
<path d="M587.077 128.962H585.865V141.446H587.077V128.962Z" fill="#4288F3"/>
<path d="M587.077 49.209H585.865V121.448H587.077V49.209Z" fill="#4288F3"/>
<path d="M410.211 287.455H425.481V239.578H410.211V287.455Z" fill="#4288F3"/>
<path d="M426.128 288.105H409.645V239.017H426.128V288.105ZM410.736 286.893H424.795V240.229H410.736V286.893Z" fill="#4288F3"/>
<path d="M418.371 287.499H417.159V305.801H418.371V287.499Z" fill="#4288F3"/>
<path d="M418.371 195.625H417.159V239.623H418.371V195.625Z" fill="#4288F3"/>
<path d="M386.147 239.605H401.418V175.609H386.147V239.605Z" fill="#4288F3"/>
<path d="M402.01 240.229H385.406V175.02H401.889V240.229H402.01ZM386.618 239.017H400.677V176.232H386.618V239.017Z" fill="#4288F3"/>
<path d="M394.374 239.623H393.162V257.925H394.374V239.623Z" fill="#4288F3"/>
<path d="M217.462 464.707H232.733V384.711H217.462V464.707Z" fill="#4288F3"/>
<path d="M233.304 465.308H216.821V384.1H233.304V465.308ZM218.033 464.096H232.092V385.312H218.033V464.096Z" fill="#4288F3"/>
<path d="M225.669 464.702H224.457V475.004H225.669V464.702Z" fill="#4288F3"/>
<path d="M225.669 372.949H224.457V384.706H225.669V372.949Z" fill="#4288F3"/>
<path d="M39.9949 307.74H24.7241V319.134H39.9949V307.74Z" fill="#4288F3"/>
<path d="M40.6009 319.74H24.1182V307.135H40.6009V319.74ZM25.3301 318.528H39.389V308.347H25.3301V318.528Z" fill="#4288F3"/>
<path d="M32.9656 279.378H31.7537V307.741H32.9656V279.378Z" fill="#4288F3"/>
<path d="M32.9656 319.134H31.7537V365.556H32.9656V319.134Z" fill="#4288F3"/>
<path opacity="0.5" d="M859.285 239.623H844.015V412.947H859.285V239.623Z" fill="#4288F3"/>
<path d="M860.013 413.553H843.53V239.017H860.013V413.553ZM844.621 412.341H858.679V240.229H844.621V412.341Z" fill="#4288F3"/>
<path d="M852.256 190.535H851.044V239.623H852.256V190.535Z" fill="#4288F3"/>
<path d="M852.256 412.947H851.044V431.734H852.256V412.947Z" fill="#4288F3"/>
<path d="M883.404 239.623H868.133V363.98H883.404V239.623Z" fill="#4288F3"/>
<path d="M884.01 364.465H867.527V239.017H884.01V364.465ZM868.739 363.253H882.798V240.229H868.739V363.253Z" fill="#4288F3"/>
<path d="M876.374 134.053H875.162V239.502H876.374V134.053Z" fill="#4288F3"/>
<path d="M876.374 363.859H875.162V375.979H876.374V363.859Z" fill="#4288F3"/>
<path d="M1100.22 170.657H1084.95V250.653H1100.22V170.657Z" fill="#4288F3"/>
<path d="M1100.83 251.259H1084.35V170.051H1100.83V251.259ZM1085.56 250.047H1099.62V171.263H1085.56V250.047Z" fill="#4288F3"/>
<path d="M1093.2 65.0869H1091.98V170.536H1093.2V65.0869Z" fill="#4288F3"/>
<path d="M1093.2 250.653H1091.98V262.773H1093.2V250.653Z" fill="#4288F3"/>
<path d="M1148.46 262.046H1133.19V372.222H1148.46V262.046Z" fill="#4288F3"/>
<path d="M1149.07 372.828H1132.58V261.44H1149.07V372.828ZM1133.8 371.616H1147.86V262.652H1133.8V371.616Z" fill="#4288F3"/>
<path d="M1141.43 243.623H1140.22V261.925H1141.43V243.623Z" fill="#4288F3"/>
<path d="M1141.43 372.222H1140.22V404.463H1141.43V372.222Z" fill="#4288F3"/>
<path d="M1172.46 371.858H1157.19V451.854H1172.46V371.858Z" fill="#4288F3"/>
<path d="M1173.19 452.46H1156.7V371.252H1173.19V452.46ZM1157.79 451.248H1171.97V372.464H1157.91V451.248H1157.79Z" fill="#4288F3"/>
<path d="M1165.43 353.556H1164.22V371.858H1165.43V353.556Z" fill="#4288F3"/>
<path d="M1165.43 451.854H1164.22V493.791H1165.43V451.854Z" fill="#4288F3"/>
<path d="M1220.69 361.798H1205.42V369.192H1220.69V361.798Z" fill="#4288F3"/>
<path d="M1221.3 369.798H1204.82V361.192H1221.3V369.798ZM1206.03 368.586H1220.09V362.404H1206.03V368.586Z" fill="#4288F3"/>
<path d="M1213.67 353.556H1212.45V361.798H1213.67V353.556Z" fill="#4288F3"/>
<path d="M1213.67 369.192H1212.45V435.37H1213.67V369.192Z" fill="#4288F3"/>
<path opacity="0.5" d="M1268.81 308.104H1253.54V315.498H1268.81V308.104Z" fill="#4288F3"/>
<path d="M1269.54 316.104H1253.05V307.498H1269.54V316.104ZM1254.14 314.892H1268.2V308.71H1254.14V314.892Z" fill="#4288F3"/>
<path d="M1261.9 263.5H1260.69V308.104H1261.9V263.5Z" fill="#4288F3"/>
<path d="M1261.9 315.498H1260.69V367.616H1261.9V315.498Z" fill="#4288F3"/>
<path d="M1341.16 407.493H1325.89V414.886H1341.16V407.493Z" fill="#4288F3"/>
<path d="M1341.77 415.492H1325.29V406.887H1341.77V415.492ZM1326.5 414.28H1340.56V408.099H1326.5V414.28Z" fill="#4288F3"/>
<path d="M1334.13 389.191H1332.92V407.493H1334.13V389.191Z" fill="#4288F3"/>
<path d="M1334.13 414.886H1332.92V471.004H1334.13V414.886Z" fill="#4288F3"/>
<path opacity="0.5" d="M1244.81 315.498H1229.54V369.313H1244.81V315.498Z" fill="#4288F3"/>
<path d="M1245.42 369.798H1228.94V314.77H1245.42V369.798ZM1230.15 368.586H1244.21V315.982H1230.15V368.586Z" fill="#4288F3"/>
<path d="M1237.78 307.256H1236.57V315.498H1237.78V307.256Z" fill="#4288F3"/>
<path d="M1237.78 369.192H1236.57V485.791H1237.78V369.192Z" fill="#4288F3"/>
<path d="M1292.93 308.104H1277.66V327.618H1292.93V308.104Z" fill="#4288F3"/>
<path d="M1293.65 328.224H1277.17V307.498H1293.65V328.224ZM1278.26 327.012H1292.32V308.71H1278.26V327.012Z" fill="#4288F3"/>
<path d="M1285.9 301.801H1284.69V308.104H1285.9V301.801Z" fill="#4288F3"/>
<path d="M1285.9 327.618H1284.69V426.037H1285.9V327.618Z" fill="#4288F3"/>
<path opacity="0.5" d="M1181.37 451.917H1196.64V361.862H1181.37V451.917Z" fill="#4288F3"/>
<path d="M1197.18 452.46H1180.7V361.192H1197.18V452.46ZM1181.91 451.248H1195.97V362.404H1181.91V451.248Z" fill="#4288F3"/>
<path d="M1189.55 451.854H1188.33V464.217H1189.55V451.854Z" fill="#4288F3"/>
<path d="M1189.55 331.981H1188.33V361.919H1189.55V331.981Z" fill="#4288F3"/>
<path opacity="0.5" d="M1350.05 414.923H1365.33V288.627H1350.05V414.923Z" fill="#4288F3"/>
<path d="M1365.89 415.492H1349.41V287.984H1365.89V415.492ZM1350.5 414.28H1364.55V289.196H1350.5V414.28Z" fill="#4288F3"/>
<path d="M1358.25 414.886H1357.04V427.249H1358.25V414.886Z" fill="#4288F3"/>
<path d="M1358.25 268.712H1357.04V288.59H1358.25V268.712Z" fill="#4288F3"/>
<path opacity="0.5" d="M1374.12 288.59H1389.39V166.294H1374.12V288.59Z" fill="#4288F3"/>
<path d="M1390.01 289.196H1373.52V165.688H1390.01V289.196ZM1374.61 287.984H1388.67V166.9H1374.61V287.984Z" fill="#4288F3"/>
<path d="M1382.25 288.59H1381.04V327.133H1382.25V288.59Z" fill="#4288F3"/>
<path d="M1382.25 158.536H1381.04V166.294H1382.25V158.536Z" fill="#4288F3"/>
<path opacity="0.5" d="M1398.18 166.306H1413.45V148.61H1398.18V166.306Z" fill="#4288F3"/>
<path d="M1414 166.9H1397.52V147.991H1414V166.9ZM1398.73 165.687H1412.79V149.204H1398.73V165.687Z" fill="#4288F3"/>
<path d="M1406.37 166.293H1405.16V216.957H1406.37V166.293Z" fill="#4288F3"/>
<path d="M1406.37 94.5398H1405.16V148.597H1406.37V94.5398Z" fill="#4288F3"/>
<path opacity="0.5" d="M1422.24 148.569H1437.51V106.753H1422.24V148.569Z" fill="#4288F3"/>
<path d="M1438.12 149.204H1421.64V106.176H1438.12V149.204ZM1422.85 147.991H1436.91V107.388H1422.85V147.991Z" fill="#4288F3"/>
<path d="M1430.49 148.597H1429.27V172.96H1430.49V148.597Z" fill="#4288F3"/>
<path d="M1430.49 70.7836H1429.27V106.782H1430.49V70.7836Z" fill="#4288F3"/>
<path d="M1446.31 118.33H1461.58V106.694H1446.31V118.33Z" fill="#4288F3"/>
<path d="M1462.24 119.024H1445.76V106.176H1462.24V119.024ZM1446.97 117.812H1461.03V107.388H1446.97V117.812Z" fill="#4288F3"/>
<path d="M1454.6 118.417H1453.39V158.9H1454.6V118.417Z" fill="#4288F3"/>
<path d="M1454.6 90.9038H1453.39V106.661H1454.6V90.9038Z" fill="#4288F3"/>
<path d="M1518.62 235.976H1533.89V230.4H1518.62V235.976Z" fill="#4288F3"/>
<path d="M1534.47 236.472H1517.99V229.684H1534.47V236.472ZM1519.2 235.26H1533.26V230.896H1519.2V235.26Z" fill="#4288F3"/>
<path d="M1526.84 235.866H1525.63V274.409H1526.84V235.866Z" fill="#4288F3"/>
<path d="M1526.84 214.533H1525.63V230.29H1526.84V214.533Z" fill="#4288F3"/>
<path d="M1542.68 243.588H1557.95V235.952H1542.68V243.588Z" fill="#4288F3"/>
<path d="M1558.59 244.108H1542.11V235.26H1558.59V244.108ZM1543.32 242.895H1557.38V236.472H1543.32V242.895Z" fill="#4288F3"/>
<path d="M1550.96 243.502H1549.74V259.864H1550.96V243.502Z" fill="#4288F3"/>
<path d="M1550.96 212.109H1549.74V235.987H1550.96V212.109Z" fill="#4288F3"/>
<path opacity="0.5" d="M1566.87 243.542H1582.14V199.666H1566.87V243.542Z" fill="#4288F3"/>
<path d="M1582.71 244.107H1566.23V199.019H1582.71V244.107ZM1567.32 242.895H1581.38V200.231H1567.32V242.895Z" fill="#4288F3"/>
<path d="M1575.07 243.501H1573.86V251.743H1575.07V243.501Z" fill="#4288F3"/>
<path d="M1575.07 185.808H1573.86V199.625H1575.07V185.808Z" fill="#4288F3"/>
<path opacity="0.5" d="M1590.93 199.668H1606.2V181.972H1590.93V199.668Z" fill="#4288F3"/>
<path d="M1606.83 200.231H1590.34V181.323H1606.83V200.231ZM1591.44 199.019H1605.49V182.535H1591.44V199.019Z" fill="#4288F3"/>
<path d="M1599.07 199.625H1597.86V211.988H1599.07V199.625Z" fill="#4288F3"/>
<path d="M1599.07 158.052H1597.86V181.929H1599.07V158.052Z" fill="#4288F3"/>
<path opacity="0.5" d="M1614.99 127.394H1630.26V107.637H1614.99V127.394Z" fill="#4288F3"/>
<path d="M1630.82 127.993H1614.34V107.024H1630.82V127.993ZM1615.55 126.781H1629.61V108.236H1615.55V126.781Z" fill="#4288F3"/>
<path d="M1623.19 127.387H1621.98V139.75H1623.19V127.387Z" fill="#4288F3"/>
<path d="M1623.19 65.693H1621.98V107.751H1623.19V65.693Z" fill="#4288F3"/>
<path opacity="0.5" d="M1639.06 107.627H1654.33V71.7504H1639.06V107.627Z" fill="#4288F3"/>
<path d="M1654.94 108.236H1638.46V71.2684H1654.94V108.236ZM1639.67 107.024H1653.73V72.4805H1639.67V107.024Z" fill="#4288F3"/>
<path d="M1647.31 107.63H1646.1V156.234H1647.31V107.63Z" fill="#4288F3"/>
<path d="M1647.31 39.8762H1646.1V71.7533H1647.31V39.8762Z" fill="#4288F3"/>
<path d="M1687.3 108.123H1702.57V64.2469H1687.3V108.123Z" fill="#4288F3"/>
<path d="M1703.18 108.721H1686.7V63.6326H1703.18V108.721ZM1687.79 107.509H1701.85V64.8446H1687.79V107.509Z" fill="#4288F3"/>
<path d="M1695.54 108.115H1694.33V123.144H1695.54V108.115Z" fill="#4288F3"/>
<path d="M1695.54 58.5419H1694.33V64.2385H1695.54V58.5419Z" fill="#4288F3"/>
<path d="M1711.37 117.753H1726.64V108.178H1711.37V117.753Z" fill="#4288F3"/>
<path d="M1727.18 118.296H1710.69V107.509H1727.18V118.296ZM1711.91 117.084H1725.96V108.721H1711.91V117.084Z" fill="#4288F3"/>
<path d="M1719.54 117.69H1718.33V138.78H1719.54V117.69Z" fill="#4288F3"/>
<path d="M1719.54 80.2377H1718.33V108.115H1719.54V80.2377Z" fill="#4288F3"/>
<path opacity="0.5" d="M1735.43 117.701H1750.7V93.9449H1735.43V117.701Z" fill="#4288F3"/>
<path d="M1751.29 118.296H1734.81V93.449H1751.29V118.296ZM1736.02 117.084H1750.08V94.661H1736.02V117.084Z" fill="#4288F3"/>
<path d="M1743.66 117.69H1742.45V126.659H1743.66V117.69Z" fill="#4288F3"/>
<path d="M1743.66 86.2979H1742.45V94.055H1743.66V86.2979Z" fill="#4288F3"/>
<path d="M1759.49 176.163H1774.76V93.9852H1759.49V176.163Z" fill="#4288F3"/>
<path d="M1775.41 176.838H1758.93V93.449H1775.41V176.838ZM1760.14 175.626H1774.2V94.661H1760.14V175.626Z" fill="#4288F3"/>
<path d="M1767.78 176.232H1766.56V189.323H1767.78V176.232Z" fill="#4288F3"/>
<path d="M1767.78 70.1776H1766.56V94.0551H1767.78V70.1776Z" fill="#4288F3"/>
<path d="M1783.68 230.144H1798.95V176.207H1783.68V230.144Z" fill="#4288F3"/>
<path d="M1799.53 230.775H1783.05V175.626H1799.53V230.775ZM1784.14 229.563H1798.2V176.839H1784.14V229.563Z" fill="#4288F3"/>
<path d="M1791.9 230.169H1790.68V272.591H1791.9V230.169Z" fill="#4288F3"/>
<path d="M1791.9 146.658H1790.68V176.232H1791.9V146.658Z" fill="#4288F3"/>
<path opacity="0.5" d="M1807.74 230.227H1823.01V194.35H1807.74V230.227Z" fill="#4288F3"/>
<path d="M1823.65 230.775H1807.04V193.686H1823.53V230.775H1823.65ZM1808.26 229.563H1822.32V194.898H1808.26V229.563Z" fill="#4288F3"/>
<path d="M1815.89 230.169H1814.68V294.771H1815.89V230.169Z" fill="#4288F3"/>
<path d="M1815.89 184.959H1814.68V194.413H1815.89V184.959Z" fill="#4288F3"/>
<path d="M1847.04 194.292H1831.77V214.049H1847.04V194.292Z" fill="#4288F3"/>
<path d="M1847.65 214.655H1831.16V193.686H1847.65V214.655ZM1832.37 213.443H1846.43V194.898H1832.37V213.443Z" fill="#4288F3"/>
<path d="M1840.01 170.293H1838.8V194.292H1840.01V170.293Z" fill="#4288F3"/>
<path d="M1840.01 214.049H1838.8V230.775H1840.01V214.049Z" fill="#4288F3"/>
<path d="M1871.16 214.048H1855.89V235.744H1871.16V214.048Z" fill="#4288F3"/>
<path d="M1871.76 236.35H1855.28V213.442H1871.76V236.35ZM1856.49 235.138H1870.55V214.654H1856.49V235.138Z" fill="#4288F3"/>
<path d="M1864.13 186.05H1862.92V214.049H1864.13V186.05Z" fill="#4288F3"/>
<path d="M1864.13 235.744H1862.92V246.41H1864.13V235.744Z" fill="#4288F3"/>
<path d="M1895.28 235.744H1880.01V247.38H1895.28V235.744Z" fill="#4288F3"/>
<path d="M1895.88 247.986H1879.4V235.138H1895.88V247.986ZM1880.49 246.774H1894.55V236.35H1880.49V246.774Z" fill="#4288F3"/>
<path d="M1888.25 221.806H1887.03V235.744H1888.25V221.806Z" fill="#4288F3"/>
<path d="M1888.25 247.38H1887.03V266.046H1888.25V247.38Z" fill="#4288F3"/>
<path d="M1919.27 247.38H1904V355.738H1919.27V247.38Z" fill="#4288F3"/>
<path d="M1920 356.344H1903.52V246.774H1920V356.344ZM1904.61 355.132H1918.67V247.986H1904.61V355.132Z" fill="#4288F3"/>
<path d="M1912.24 235.502H1911.03V247.38H1912.24V235.502Z" fill="#4288F3"/>
<path d="M1912.24 355.738H1911.03V364.343H1912.24V355.738Z" fill="#4288F3"/>
<path opacity="0.5" d="M1663.12 71.8367H1678.39V64.2007H1663.12V71.8367Z" fill="#4288F3"/>
<path d="M1679.06 72.4805H1662.58V63.6324H1679.06V72.4805ZM1663.79 71.2684H1677.85V64.8445H1663.79V71.2684Z" fill="#4288F3"/>
<path d="M1671.43 71.8745H1670.21V84.3587H1671.43V71.8745Z" fill="#4288F3"/>
<path d="M1671.43 -8H1670.21V64.2385H1671.43V-8Z" fill="#4288F3"/>
<path d="M1494.56 230.346H1509.83V182.469H1494.56V230.346Z" fill="#4288F3"/>
<path d="M1510.48 230.896H1493.99V181.808H1510.48V230.896ZM1495.08 229.684H1509.14V183.02H1495.08V229.684Z" fill="#4288F3"/>
<path d="M1502.72 230.29H1501.51V248.592H1502.72V230.29Z" fill="#4288F3"/>
<path d="M1502.72 138.416H1501.51V182.414H1502.72V138.416Z" fill="#4288F3"/>
<path d="M1470.49 182.375H1485.76V118.378H1470.49V182.375Z" fill="#4288F3"/>
<path d="M1486.36 183.02H1469.88V117.811H1486.36V183.02ZM1470.97 181.808H1485.02V119.023H1470.97V181.808Z" fill="#4288F3"/>
<path d="M1478.72 182.414H1477.51V200.716H1478.72V182.414Z" fill="#4288F3"/>
<path d="M1301.81 407.477H1317.08V327.482H1301.81V407.477Z" fill="#4288F3"/>
<path d="M1317.65 408.099H1301.17V326.891H1317.65V408.099ZM1302.38 406.887H1316.44V328.103H1302.38V406.887Z" fill="#4288F3"/>
<path d="M1310.02 407.493H1308.8V417.795H1310.02V407.493Z" fill="#4288F3"/>
<path d="M1310.02 315.861H1308.8V327.618H1310.02V315.861Z" fill="#4288F3"/>
<path d="M1124.34 250.653H1109.07V262.046H1124.34V250.653Z" fill="#4288F3"/>
<path d="M1124.95 262.652H1108.47V250.047H1124.95V262.652ZM1109.68 261.44H1123.74V251.259H1109.68V261.44Z" fill="#4288F3"/>
<path d="M1117.31 222.291H1116.1V250.653H1117.31V222.291Z" fill="#4288F3"/>
<path d="M1117.31 262.046H1116.1V308.468H1117.31V262.046Z" fill="#4288F3"/>
<path opacity="0.5" d="M907.522 262.773H892.251V363.98H907.522V262.773Z" fill="#4288F3"/>
<path d="M908.128 364.465H891.645V262.046H908.128V364.465ZM892.857 363.253H906.916V263.258H892.857V363.253Z" fill="#4288F3"/>
<path d="M900.492 206.049H899.28V262.652H900.492V206.049Z" fill="#4288F3"/>
<path d="M900.492 363.859H899.28V381.07H900.492V363.859Z" fill="#4288F3"/>
<path opacity="0.5" d="M955.637 207.988H940.366V253.077H955.637V207.988Z" fill="#4288F3"/>
<path d="M956.364 253.683H939.881V207.382H956.364V253.683ZM940.972 252.471H955.031V208.594H940.972V252.471Z" fill="#4288F3"/>
<path d="M948.729 151.385H947.517V207.988H948.729V151.385Z" fill="#4288F3"/>
<path d="M948.729 253.077H947.517V261.682H948.729V253.077Z" fill="#4288F3"/>
<path d="M988.622 263.04H1003.89V213.952H988.622V263.04Z" fill="#4288F3"/>
<path d="M1004.48 263.743H987.996V213.443H1004.48V263.743ZM989.208 262.531H1003.27V214.655H989.208V262.531Z" fill="#4288F3"/>
<path d="M996.844 263.137H995.632V319.74H996.844V263.137Z" fill="#4288F3"/>
<path d="M996.844 199.383H995.632V214.049H996.844V199.383Z" fill="#4288F3"/>
<path opacity="0.5" d="M1036.87 288.302H1052.14V261.394H1036.87V288.302Z" fill="#4288F3"/>
<path d="M1052.72 288.832H1036.23V260.713H1052.72V288.832ZM1037.32 287.62H1051.38V261.925H1037.32V287.62Z" fill="#4288F3"/>
<path d="M1045.08 288.226H1043.87V301.559H1045.08V288.226Z" fill="#4288F3"/>
<path d="M1045.08 246.653H1043.87V261.319H1045.08V246.653Z" fill="#4288F3"/>
<path opacity="0.5" d="M1060.93 197.529H1076.2V170.621H1060.93V197.529Z" fill="#4288F3"/>
<path d="M1076.83 198.171H1060.35V170.051H1076.83V198.171ZM1061.44 196.959H1075.5V171.263H1061.44V196.959Z" fill="#4288F3"/>
<path d="M1069.08 197.565H1067.87V214.897H1069.08V197.565Z" fill="#4288F3"/>
<path d="M1069.08 143.871H1067.87V170.657H1069.08V143.871Z" fill="#4288F3"/>
<path d="M1012.69 288.257H1027.96V263.41H1012.69V288.257Z" fill="#4288F3"/>
<path d="M1028.6 288.832H1012.11V262.773H1028.6V288.832ZM1013.33 287.62H1027.39V263.985H1013.33V287.62Z" fill="#4288F3"/>
<path d="M1020.96 288.226H1019.75V311.255H1020.96V288.226Z" fill="#4288F3"/>
<path opacity="0.5" d="M931.64 252.713H916.369V262.773H931.64V252.713Z" fill="#4288F3"/>
<path d="M932.246 263.379H915.763V252.107H932.246V263.379ZM916.975 262.167H931.034V253.319H916.975V262.167Z" fill="#4288F3"/>
<path d="M924.611 198.413H923.399V252.713H924.611V198.413Z" fill="#4288F3"/>
<path d="M924.611 262.773H923.399V330.891H924.611V262.773Z" fill="#4288F3"/>
<path d="M979.755 207.988H964.484V213.927H979.755V207.988Z" fill="#4288F3"/>
<path d="M980.361 214.655H963.878V207.503H980.361V214.655ZM965.09 213.442H979.149V208.715H965.09V213.442Z" fill="#4288F3"/>
<path d="M972.726 195.019H971.514V207.988H972.726V195.019Z" fill="#4288F3"/>
<path d="M972.726 214.049H971.514V295.62H972.726V214.049Z" fill="#4288F3"/>
</g>
</g>
<defs>
<clipPath id="clip0">
<rect width="1920" height="559" fill="white"/>
</clipPath>
</defs>
</svg>
