<svg width="46" height="39" viewBox="0 0 46 39" fill="none" xmlns="http://www.w3.org/2000/svg">
<path d="M11.5206 33.5176V31.6446C11.5316 31.487 11.5088 31.329 11.4538 31.181C11.3989 31.0329 11.313 30.8983 11.2019 30.7861C11.0909 30.6738 10.9572 30.5865 10.8097 30.53C10.6623 30.4735 10.5045 30.449 10.3469 30.4583C10.1405 30.4448 9.93435 30.4869 9.74985 30.5802C9.56535 30.6736 9.40929 30.8147 9.29796 30.989C9.19648 30.82 9.05128 30.6815 8.87767 30.5881C8.70405 30.4947 8.50845 30.4498 8.31149 30.4583C8.1398 30.4496 7.96882 30.486 7.81551 30.5637C7.66219 30.6415 7.53185 30.7579 7.43741 30.9016V30.5332H6.78809V33.5176H7.44365V31.8756C7.42971 31.7735 7.43848 31.6696 7.46934 31.5714C7.50021 31.4731 7.5524 31.3829 7.62219 31.3071C7.69198 31.2313 7.77765 31.1719 7.87306 31.1331C7.96847 31.0943 8.07128 31.0771 8.17414 31.0826C8.60494 31.0826 8.82346 31.3636 8.82346 31.8693V33.5301H9.47902V31.8756C9.46565 31.7736 9.47482 31.67 9.5059 31.5719C9.53697 31.4739 9.58919 31.3839 9.65886 31.3083C9.72853 31.2327 9.81396 31.1733 9.90911 31.1343C10.0043 31.0953 10.1068 31.0777 10.2095 31.0826C10.6528 31.0826 10.8651 31.3636 10.8651 31.8693V33.5301L11.5206 33.5176ZM21.2199 30.5332H20.1522V29.6279H19.4967V30.5332H18.9035V31.1263H19.5092V32.4999C19.5092 33.1929 19.7776 33.605 20.5456 33.605C20.8325 33.606 21.1138 33.5259 21.3572 33.374L21.1699 32.8183C20.9958 32.9222 20.7982 32.9802 20.5955 32.9869C20.2833 32.9869 20.1647 32.7871 20.1647 32.4874V31.1263H21.2261L21.2199 30.5332ZM26.7578 30.4583C26.5995 30.4536 26.4429 30.4918 26.3044 30.5687C26.166 30.6456 26.0508 30.7585 25.9711 30.8953V30.5332H25.3281V33.5176H25.9774V31.8443C25.9774 31.3511 26.1897 31.0764 26.6017 31.0764C26.7406 31.0745 26.8785 31.1 27.0076 31.1513L27.2074 30.527C27.0591 30.4739 26.9028 30.4465 26.7453 30.4458L26.7578 30.4583ZM18.3853 30.7705C18.0178 30.5519 17.5952 30.4436 17.1679 30.4583C16.4124 30.4583 15.9192 30.8204 15.9192 31.4135C15.9192 31.9005 16.2813 32.2002 16.9493 32.2939L17.2615 32.3376C17.6174 32.3875 17.786 32.4812 17.786 32.6498C17.786 32.8808 17.5487 33.0119 17.1054 33.0119C16.7489 33.0222 16.3992 32.9122 16.1127 32.6997L15.8005 33.2054C16.1788 33.4695 16.6318 33.6052 17.0929 33.5925C17.9545 33.5925 18.454 33.1867 18.454 32.6185C18.454 32.0504 18.0607 31.8194 17.4114 31.7257L17.0992 31.682C16.8182 31.6446 16.5935 31.5884 16.5935 31.3886C16.5935 31.1888 16.8057 31.0389 17.1616 31.0389C17.4905 31.0428 17.813 31.1309 18.0981 31.2949L18.3853 30.7705ZM35.7765 30.4583C35.6182 30.4536 35.4616 30.4918 35.3231 30.5687C35.1847 30.6456 35.0695 30.7585 34.9898 30.8953V30.5332H34.3468V33.5176H34.9961V31.8443C34.9961 31.3511 35.2084 31.0764 35.6204 31.0764C35.7593 31.0745 35.8972 31.1 36.0263 31.1513L36.226 30.527C36.0778 30.4739 35.9215 30.4465 35.764 30.4458L35.7765 30.4583ZM27.4103 32.0192C27.4025 32.2289 27.4387 32.4379 27.5164 32.6329C27.5941 32.8278 27.7116 33.0044 27.8615 33.1513C28.0113 33.2982 28.1902 33.4123 28.3867 33.4861C28.5831 33.5599 28.7928 33.5919 29.0024 33.58C29.3922 33.5999 29.7754 33.4729 30.0762 33.2242L29.7641 32.6997C29.5396 32.8709 29.2659 32.965 28.9836 32.9682C28.7436 32.9488 28.5197 32.8397 28.3564 32.6627C28.1932 32.4857 28.1025 32.2537 28.1025 32.0129C28.1025 31.7721 28.1932 31.5402 28.3564 31.3632C28.5197 31.1861 28.7436 31.0771 28.9836 31.0577C29.2659 31.0608 29.5396 31.155 29.7641 31.3261L30.0762 30.8017C29.7754 30.5529 29.3922 30.426 29.0024 30.4458C28.7928 30.4339 28.5831 30.4659 28.3867 30.5398C28.1902 30.6136 28.0113 30.7276 27.8615 30.8745C27.7116 31.0214 27.5941 31.198 27.5164 31.393C27.4387 31.5879 27.4025 31.797 27.4103 32.0067V32.0192ZM33.4914 32.0192V30.5332H32.8421V30.8953C32.7318 30.7535 32.5894 30.6398 32.4266 30.5638C32.2637 30.4878 32.0851 30.4517 31.9056 30.4583C31.4916 30.4583 31.0946 30.6227 30.8019 30.9155C30.5091 31.2082 30.3447 31.6052 30.3447 32.0192C30.3447 32.4331 30.5091 32.8301 30.8019 33.1229C31.0946 33.4156 31.4916 33.58 31.9056 33.58C32.0851 33.5867 32.2637 33.5505 32.4266 33.4745C32.5894 33.3985 32.7318 33.2849 32.8421 33.143V33.5051H33.4914V32.0192ZM31.0752 32.0192C31.0855 31.8435 31.147 31.6747 31.2521 31.5335C31.3572 31.3924 31.5013 31.285 31.6666 31.2247C31.8319 31.1644 32.0112 31.1537 32.1825 31.1941C32.3538 31.2344 32.5096 31.3239 32.6306 31.4517C32.7517 31.5794 32.8327 31.7397 32.8638 31.9129C32.8949 32.0861 32.8746 32.2647 32.8055 32.4265C32.7364 32.5883 32.6215 32.7264 32.4749 32.8238C32.3283 32.9211 32.1565 32.9735 31.9805 32.9744C31.8569 32.976 31.7343 32.9519 31.6204 32.9038C31.5066 32.8557 31.4039 32.7846 31.3189 32.6948C31.2338 32.6051 31.1683 32.4988 31.1263 32.3825C31.0844 32.2662 31.067 32.1425 31.0752 32.0192ZM23.2396 30.4583C22.8257 30.4641 22.431 30.6341 22.1423 30.9309C21.8537 31.2277 21.6948 31.627 21.7006 32.041C21.7064 32.455 21.8764 32.8497 22.1732 33.1383C22.4701 33.4269 22.8694 33.5858 23.2833 33.58C23.7325 33.6031 24.1742 33.4585 24.5227 33.1742L24.2105 32.6935C23.964 32.8912 23.6586 33.001 23.3426 33.0056C23.128 33.0241 22.9146 32.9581 22.7479 32.8217C22.5812 32.6853 22.4742 32.4892 22.4498 32.2751H24.6663C24.6663 32.194 24.6663 32.1128 24.6663 32.0254C24.6663 31.0889 24.0856 30.4645 23.249 30.4645L23.2396 30.4583ZM23.2396 31.0389C23.3368 31.0369 23.4334 31.054 23.524 31.0892C23.6145 31.1245 23.6973 31.1773 23.7674 31.2446C23.8376 31.3118 23.8938 31.3922 23.9328 31.4812C23.9719 31.5702 23.9931 31.666 23.9951 31.7632H22.4342C22.4455 31.5628 22.5348 31.3748 22.683 31.2394C22.8312 31.1041 23.0265 31.0321 23.2271 31.0389H23.2396ZM39.507 32.0254V29.3345H38.8826V30.8953C38.7724 30.7535 38.6299 30.6398 38.4671 30.5638C38.3043 30.4878 38.1257 30.4517 37.9461 30.4583C37.5322 30.4583 37.1351 30.6227 36.8424 30.9155C36.5497 31.2082 36.3853 31.6052 36.3853 32.0192C36.3853 32.4331 36.5497 32.8301 36.8424 33.1229C37.1351 33.4156 37.5322 33.58 37.9461 33.58C38.1257 33.5867 38.3043 33.5505 38.4671 33.4745C38.6299 33.3985 38.7724 33.2849 38.8826 33.143V33.5051H39.507V32.0254ZM40.5902 33.0837C40.6308 33.0832 40.6711 33.0906 40.7089 33.1055C40.7447 33.1202 40.7775 33.1413 40.8056 33.168C40.8331 33.1949 40.8553 33.2266 40.8712 33.2616C40.887 33.2981 40.8952 33.3374 40.8952 33.3771C40.8952 33.4169 40.887 33.4562 40.8712 33.4926C40.8553 33.5276 40.8331 33.5594 40.8056 33.5863C40.7775 33.6129 40.7447 33.6341 40.7089 33.6487C40.6715 33.6652 40.6311 33.6737 40.5902 33.6737C40.5311 33.6732 40.4732 33.656 40.4235 33.6239C40.3737 33.5919 40.3341 33.5463 40.3093 33.4926C40.2937 33.4561 40.2856 33.4168 40.2856 33.3771C40.2856 33.3374 40.2937 33.2981 40.3093 33.2616C40.3252 33.2266 40.3474 33.1949 40.3748 33.168C40.4029 33.1413 40.4358 33.1202 40.4716 33.1055C40.5123 33.0894 40.5559 33.0819 40.5996 33.0837H40.5902ZM40.5902 33.6112C40.6214 33.6114 40.6522 33.6051 40.6808 33.5925C40.7076 33.5805 40.732 33.5636 40.7526 33.5426C40.7916 33.5 40.8133 33.4443 40.8133 33.3865C40.8133 33.3287 40.7916 33.273 40.7526 33.2304C40.732 33.2093 40.7077 33.1924 40.6808 33.1805C40.6522 33.168 40.6214 33.1616 40.5902 33.1617C40.5591 33.1619 40.5283 33.1683 40.4997 33.1805C40.4717 33.192 40.4462 33.2089 40.4248 33.2304C40.3857 33.273 40.3641 33.3287 40.3641 33.3865C40.3641 33.4443 40.3857 33.5 40.4248 33.5426C40.4462 33.564 40.4717 33.5809 40.4997 33.5925C40.5312 33.6061 40.5653 33.6125 40.5996 33.6112H40.5902ZM40.609 33.2398C40.6381 33.2384 40.6668 33.2472 40.6901 33.2647C40.6997 33.2726 40.7072 33.2827 40.7121 33.2941C40.717 33.3055 40.7191 33.3179 40.7182 33.3303C40.7187 33.3407 40.717 33.351 40.7132 33.3607C40.7094 33.3704 40.7037 33.3791 40.6964 33.3865C40.6783 33.4029 40.6552 33.4128 40.6308 33.4146L40.7213 33.5176H40.6496L40.5653 33.4146H40.5372V33.5176H40.4779V33.2429L40.609 33.2398ZM40.5403 33.2928V33.3678H40.609C40.6212 33.3714 40.6342 33.3714 40.6464 33.3678C40.6486 33.3634 40.6498 33.3586 40.6498 33.3537C40.6498 33.3488 40.6486 33.344 40.6464 33.3397C40.6486 33.3353 40.6498 33.3305 40.6498 33.3256C40.6498 33.3207 40.6486 33.3159 40.6464 33.3116C40.6342 33.3079 40.6212 33.3079 40.609 33.3116L40.5403 33.2928ZM37.1064 32.0254C37.1167 31.8497 37.1782 31.6809 37.2833 31.5398C37.3884 31.3986 37.5325 31.2913 37.6978 31.231C37.8631 31.1706 38.0424 31.16 38.2137 31.2003C38.385 31.2406 38.5408 31.3302 38.6618 31.4579C38.7829 31.5856 38.8639 31.746 38.895 31.9192C38.9261 32.0924 38.9058 32.2709 38.8367 32.4327C38.7676 32.5946 38.6527 32.7327 38.5061 32.83C38.3595 32.9274 38.1877 32.9797 38.0117 32.9807C37.8881 32.9822 37.7655 32.9582 37.6516 32.9101C37.5378 32.862 37.4351 32.7908 37.35 32.7011C37.265 32.6114 37.1995 32.505 37.1575 32.3887C37.1156 32.2725 37.0982 32.1488 37.1064 32.0254ZM15.1824 32.0254V30.5332H14.5331V30.8953C14.4228 30.7535 14.2804 30.6398 14.1176 30.5638C13.9547 30.4878 13.7762 30.4517 13.5966 30.4583C13.1826 30.4583 12.7856 30.6227 12.4929 30.9155C12.2002 31.2082 12.0357 31.6052 12.0357 32.0192C12.0357 32.4331 12.2002 32.8301 12.4929 33.1229C12.7856 33.4156 13.1826 33.58 13.5966 33.58C13.7762 33.5867 13.9547 33.5505 14.1176 33.4745C14.2804 33.3985 14.4228 33.2849 14.5331 33.143V33.5051H15.1824V32.0254ZM12.7662 32.0254C12.7766 31.8497 12.8381 31.6809 12.9431 31.5398C13.0482 31.3986 13.1923 31.2913 13.3576 31.231C13.5229 31.1706 13.7023 31.16 13.8736 31.2003C14.0448 31.2406 14.2006 31.3302 14.3217 31.4579C14.4427 31.5856 14.5238 31.746 14.5548 31.9192C14.5859 32.0924 14.5656 32.2709 14.4965 32.4327C14.4275 32.5946 14.3125 32.7327 14.1659 32.83C14.0193 32.9274 13.8475 32.9797 13.6715 32.9807C13.5474 32.9831 13.4241 32.9597 13.3095 32.912C13.1949 32.8643 13.0915 32.7932 13.0057 32.7034C12.92 32.6136 12.8539 32.507 12.8116 32.3902C12.7693 32.2735 12.7517 32.1493 12.76 32.0254H12.7662Z" fill="#231F20"/>
<path d="M28.0034 7.7915H18.1699V25.4636H28.0034V7.7915Z" fill="#FF5F00"/>
<path d="M18.7944 16.6285C18.7926 14.9263 19.1781 13.246 19.9217 11.7148C20.6654 10.1837 21.7477 8.84182 23.0868 7.79085C21.4288 6.48791 19.4378 5.67769 17.3412 5.45278C15.2446 5.22788 13.127 5.59737 11.2304 6.51903C9.3339 7.44069 7.73491 8.87733 6.61622 10.6648C5.49754 12.4522 4.9043 14.5183 4.9043 16.6269C4.9043 18.7356 5.49754 20.8017 6.61622 22.5891C7.73491 24.3765 9.3339 25.8132 11.2304 26.7348C13.127 27.6565 15.2446 28.026 17.3412 27.8011C19.4378 27.5762 21.4288 26.7659 23.0868 25.463C21.7482 24.4124 20.6661 23.071 19.9224 21.5404C19.1788 20.0098 18.793 18.3302 18.7944 16.6285Z" fill="#EB001B"/>
<path d="M41.2705 16.6293C41.2705 18.7381 40.6771 20.8043 39.5582 22.5918C38.4393 24.3793 36.8401 25.8159 34.9433 26.7374C33.0465 27.659 30.9287 28.0282 28.832 27.803C26.7353 27.5778 24.7442 26.7672 23.0864 25.4638C24.4245 24.4122 25.5063 23.0705 26.2501 21.5398C26.994 20.0092 27.3805 18.3296 27.3805 16.6277C27.3805 14.9259 26.994 13.2463 26.2501 11.7156C25.5063 10.185 24.4245 8.84324 23.0864 7.79166C24.7442 6.48831 26.7353 5.6777 28.832 5.45247C30.9287 5.22725 33.0465 5.5965 34.9433 6.51803C36.8401 7.43956 38.4393 8.87617 39.5582 10.6637C40.6771 12.4512 41.2705 14.5174 41.2705 16.6262V16.6293Z" fill="#F79E1B"/>
<path d="M40.1964 23.5909V23.2287H40.3432V23.1538H39.9717V23.2287H40.1309V23.5909H40.1964ZM40.9176 23.5909V23.1538H40.8052L40.6741 23.466L40.543 23.1538H40.4431V23.5909H40.5242V23.2631L40.646 23.5471H40.7303L40.852 23.2631V23.594L40.9176 23.5909Z" fill="#F79E1B"/>
</svg>
