<svg width="69" height="24" viewBox="0 0 69 24" fill="none" xmlns="http://www.w3.org/2000/svg">
<path fill-rule="evenodd" clip-rule="evenodd" d="M49.5629 5.66217C51.1272 5.66217 52.3951 4.39488 52.3951 2.83215C52.3951 1.2685 51.1272 0 49.5629 0C48.0005 0 46.7332 1.2685 46.7332 2.83215C46.7332 4.39488 48.0005 5.66217 49.5629 5.66217ZM27.8724 7.19052C27.7446 7.51152 26.8248 10.1097 24.6003 12.8025V1.28858L18.6731 2.46003V23.3302H24.6003V16.8791C26.317 19.4538 27.1646 23.3302 27.1646 23.3302H34.2642C33.5619 20.4108 30.49 15.0276 30.49 15.0276C33.247 11.5322 34.458 7.80758 34.6506 7.19052H27.8724ZM43.4547 6.97266C38.1458 7.14305 35.4508 9.52488 35.4508 14.2596V23.3302H41.2426V15.9334C41.2426 13.0982 41.6138 11.883 44.9782 11.767V7.05573C44.4119 6.93554 43.4547 6.97266 43.4547 6.97266ZM8.73256 9.48867C8.00657 9.4409 6.32578 9.33228 6.32578 7.81914C6.32578 5.99321 8.74564 5.99321 9.65328 5.99321C11.2492 5.99321 13.3161 6.46483 14.7921 6.90633C14.7921 6.90633 15.6155 7.1966 16.3162 7.49387L16.3813 7.51152V2.51084L16.2919 2.48437C14.5499 1.87491 12.5244 1.28858 8.76907 1.28858C2.2942 1.28858 0 5.06062 0 8.29198C0 10.1547 0.798406 14.5386 8.21378 15.0443C8.8424 15.083 10.5107 15.1791 10.5107 16.7428C10.5107 18.0338 9.14485 18.7951 6.8476 18.7951C4.33007 18.7951 1.888 18.1531 0.40468 17.5442V22.6946C2.62524 23.2767 5.12848 23.5676 8.06225 23.5676C14.3932 23.5676 17.2287 19.9988 17.2287 16.4616C17.2287 12.451 14.0558 9.84528 8.73256 9.48867ZM46.6918 23.3302H52.4367V7.20877H46.6918V23.3302ZM63.2542 2.31641V23.3302H69V1.28858L63.2542 2.31641ZM54.8703 2.31641L60.6107 1.28858V23.3302H54.8703V2.31641Z" fill="url(#paint0_linear)"/>
<defs>
<linearGradient id="paint0_linear" x1="18.6603" y1="1.68086e-07" x2="23.8451" y2="29.0693" gradientUnits="userSpaceOnUse">
<stop stop-color="#6B195F"/>
<stop offset="1" stop-color="#4C255B"/>
</linearGradient>
</defs>
</svg>
