<svg width="62" height="21" viewBox="0 0 62 21" fill="none" xmlns="http://www.w3.org/2000/svg">
<path d="M26.4768 19.6435H21.5093L24.6332 0.490234H29.6008L26.4768 19.6435Z" fill="#005CA9"/>
<path d="M17.3096 0.490234L12.5469 13.6517L11.9836 10.835L10.2936 2.23144C10.2936 2.23144 10.0888 0.490234 7.93785 0.490234H0.102424L0 0.797505C0 0.797505 2.40696 1.30962 5.22362 2.99962L9.57663 19.6435H14.749L22.6869 0.490234H17.3096Z" fill="#005CA9"/>
<path d="M56.5384 19.6435H61.0963L57.1018 0.490234H53.1072C51.2636 0.490234 50.8027 1.92417 50.8027 1.92417L43.377 19.6435H48.5494L49.5736 16.7756H55.9239L56.5384 19.6435ZM51.0587 12.8323L53.6706 5.66264L55.1557 12.8323H51.0587Z" fill="#005CA9"/>
<path d="M43.735 5.09945L44.452 1.0025C44.452 1.0025 42.2499 0.183105 39.9453 0.183105C37.4872 0.183105 31.5978 1.25856 31.5978 6.53339C31.5978 11.5009 38.5114 11.5522 38.5114 14.164C38.5114 16.7758 32.3148 16.3149 30.2663 14.6761L29.5493 18.9779C29.5493 18.9779 31.7514 20.0533 35.1826 20.0533C38.5626 20.0533 43.735 18.3121 43.735 13.4982C43.735 8.53065 36.7702 8.06975 36.7702 5.86763C36.7702 3.61431 41.6353 3.92158 43.735 5.09945Z" fill="#005CA9"/>
<path d="M11.9836 10.835L10.2936 2.23144C10.2936 2.23144 10.0888 0.490234 7.93785 0.490234H0.102424L0 0.797505C0 0.797505 3.78968 1.56568 7.37452 4.53598C10.8569 7.30142 11.9836 10.835 11.9836 10.835Z" fill="#F7A823"/>
</svg>
