<svg width="73" height="33" viewBox="0 0 73 33" fill="none" xmlns="http://www.w3.org/2000/svg">
<path d="M21.4219 0.00439453C18.7992 10.9703 18.4641 12.6954 18.1266 14.587H18.0703C17.6227 12.0063 17.4211 10.9495 15.0586 0.00439453H10.582C8.43984 10.4731 8.13281 12.5011 7.76719 14.587H7.71328C7.34766 12.3092 7.08984 10.9194 4.5 0.00439453H0L5.71406 19.9474H9.65391C11.8242 9.67065 12.157 8.22534 12.7805 4.39121H12.8344C13.507 8.22071 13.8773 10.1678 15.9609 19.9474H20.0133L25.7039 0.00439453H21.4219Z" fill="black"/>
<path d="M17.5549 29.9282C17.5549 28.1545 17.126 27.8655 16.3338 27.5255C17.2853 27.2041 17.8221 26.3092 17.8221 25.2616C17.8221 24.4476 17.3557 22.5791 14.7963 22.5791H9.93066V32.0673H11.9041V28.3557H13.9783C15.4666 28.3557 15.5486 28.8552 15.5486 30.1525C15.5486 31.133 15.626 31.621 15.7596 32.0673H17.9838V31.8198C17.5572 31.6649 17.5572 31.3227 17.5549 29.9282ZM14.2572 26.7647H11.9041V24.221H14.4072C15.5838 24.221 15.8135 24.961 15.8135 25.4628C15.8135 26.404 15.3049 26.7647 14.2572 26.7647Z" fill="black"/>
<path d="M0.909668 22.584L0.912012 24.2629H3.81826V32.0722H5.82217V24.2629H8.73076V22.584H0.909668Z" fill="black"/>
<path d="M60.5788 16.4142V11.248H70.4272V7.72378H60.5788V3.53584H71.3015V0.00927734H56.4351V19.9523H71.7772V16.4142H60.5788Z" fill="black"/>
<path d="M54.4971 24.2603V22.5791H47.6533L47.6557 32.0765H49.6643V28.0828H53.8947V26.4017H49.6643V24.2603H54.4971Z" fill="black"/>
<path d="M52.1179 15.4476C52.1179 11.7245 51.2202 11.1094 49.5585 10.3879C51.5601 9.72419 52.6851 7.83025 52.6851 5.64031C52.6851 3.91519 51.696 0.00244141 46.3171 0.00244141H36.103V19.9454H40.2468V12.1338H44.6085C47.7304 12.1338 47.8991 13.1906 47.8991 15.9171C47.8968 17.9683 48.0679 18.9996 48.3515 19.9501H53.0202V19.4205C52.1179 19.0875 52.1179 18.3637 52.1179 15.4476ZM45.1944 8.78069H40.2468V3.44575H45.5062C47.9882 3.44575 48.464 4.99975 48.464 6.05657C48.4616 8.02681 47.3905 8.77838 45.1944 8.78069Z" fill="black"/>
<path d="M57.8179 30.3885V27.9373H62.5054V26.2561H57.8179V24.2604H62.9226V22.5815H55.8491V32.0697H63.1499V30.3885H57.8179Z" fill="black"/>
<path d="M72.4101 29.9282C72.4101 28.1545 71.9765 27.8655 71.189 27.5255C72.1429 27.2041 72.6819 26.3092 72.6819 25.2616C72.6819 24.4476 72.2108 22.5791 69.6515 22.5791H64.7905V32.0673H66.764V28.3557H68.8382C70.3218 28.3557 70.4085 28.8552 70.4085 30.1525C70.4085 31.133 70.4858 31.621 70.6194 32.0673H72.839V31.8198C72.4124 31.6649 72.4124 31.3227 72.4101 29.9282ZM69.1171 26.7647H66.764V24.221H69.2624C70.4437 24.221 70.6733 24.961 70.6733 25.4628C70.6733 26.404 70.1647 26.7647 69.1171 26.7647Z" fill="black"/>
<path d="M43.5963 26.6699L41.2572 26.101C40.8541 26.0109 40.233 25.8513 40.233 25.1113C40.233 24.2487 41.1518 23.9735 41.9088 23.9735C43.6666 23.9735 43.8213 24.9841 43.8846 25.4004H45.8041C45.79 24.2395 45.0025 22.334 42.0518 22.334C38.9322 22.334 38.3604 24.2025 38.3604 25.2593C38.3604 27.3475 39.858 27.6897 41.4143 28.0459L42.4408 28.2864C43.465 28.5269 44.1846 28.7211 44.1846 29.4611C44.1846 30.4694 43.1229 30.689 42.1783 30.689C40.4205 30.689 40.151 29.6831 40.1369 29.1582H38.2197C38.2197 30.3329 38.8197 32.3286 42.3307 32.3286C43.1697 32.3286 46.1205 32.0765 46.1205 29.2229C46.1182 27.5186 44.9158 26.9867 43.5963 26.6699Z" fill="black"/>
<path d="M32.1586 0H27.9375V19.943H32.1586V0Z" fill="black"/>
<path d="M24.3468 22.584H22.0241L18.5952 32.0745H20.714L21.3819 30.1181H24.9304L25.5491 32.0745H27.7335L24.3468 22.584ZM21.921 28.4809L23.1562 24.7277H23.1726L24.3726 28.4809H21.921Z" fill="black"/>
<path d="M34.8962 22.584V29.1954H34.8728L31.0501 22.584H28.936V32.0745H30.8087V25.3081H30.8368L34.7603 32.0745H36.7735V22.584H34.8962Z" fill="black"/>
</svg>
