<svg width="72" height="72" viewBox="0 0 72 72" fill="none" xmlns="http://www.w3.org/2000/svg">
<path d="M50.257 34.0663C51.4169 33.2512 52.185 31.8954 52.185 30.3671C52.185 27.867 50.1629 25.845 47.6628 25.845C45.1627 25.845 43.1407 27.867 43.1407 30.3671C43.1407 31.8954 43.9009 33.2512 45.0687 34.0663C44.0733 34.4112 43.1642 34.9441 42.3961 35.6338C41.3381 34.7325 40.092 34.0428 38.7283 33.6353C40.3819 32.6321 41.4948 30.806 41.4948 28.7291C41.4948 25.5628 38.932 23 35.7657 23C32.5995 23 30.0367 25.5706 30.0367 28.7291C30.0367 30.806 31.1417 32.6321 32.8032 33.6353C31.4552 34.0428 30.2248 34.7246 29.1746 35.6103C28.4065 34.9363 27.513 34.4112 26.5334 34.0741C27.6933 33.2591 28.4614 31.9032 28.4614 30.3749C28.4614 27.8748 26.4393 25.8528 23.9392 25.8528C21.4391 25.8528 19.4171 27.8748 19.4171 30.3749C19.4171 31.9032 20.1773 33.2591 21.3451 34.0741C18.2336 35.1479 16 38.1025 16 41.5745V42.0917C16 42.1074 16.0157 42.1231 16.0313 42.1231H25.6164C25.5615 42.5541 25.5302 43.0009 25.5302 43.4476V43.9805C25.5302 46.2847 27.3955 48.15 29.6997 48.15H41.8475C44.1517 48.15 46.017 46.2847 46.017 43.9805V43.4476C46.017 43.0009 45.9856 42.5541 45.9308 42.1231H55.5785C55.5942 42.1231 55.6099 42.1074 55.6099 42.0917V41.5745C55.5942 38.0947 53.3684 35.14 50.257 34.0663ZM44.3946 30.3593C44.3946 28.5567 45.8602 27.0911 47.6628 27.0911C49.4654 27.0911 50.931 28.5567 50.931 30.3593C50.931 32.1383 49.4967 33.5882 47.7255 33.6274C47.702 33.6274 47.6863 33.6274 47.6628 33.6274C47.6393 33.6274 47.6236 33.6274 47.6001 33.6274C45.821 33.5961 44.3946 32.1462 44.3946 30.3593ZM31.275 28.7291C31.275 26.2603 33.2813 24.254 35.7501 24.254C38.2188 24.254 40.2252 26.2603 40.2252 28.7291C40.2252 31.1116 38.3521 33.0631 36.0087 33.1964C35.9225 33.1964 35.8363 33.1964 35.7501 33.1964C35.6639 33.1964 35.5777 33.1964 35.4914 33.1964C33.1481 33.0631 31.275 31.1116 31.275 28.7291ZM20.6475 30.3593C20.6475 28.5567 22.1131 27.0911 23.9157 27.0911C25.7183 27.0911 27.1839 28.5567 27.1839 30.3593C27.1839 32.1383 25.7496 33.5882 23.9784 33.6274C23.9549 33.6274 23.9392 33.6274 23.9157 33.6274C23.8922 33.6274 23.8765 33.6274 23.853 33.6274C22.0818 33.5961 20.6475 32.1462 20.6475 30.3593ZM25.8358 40.8613H17.2696C17.6223 37.5226 20.4438 34.9049 23.8687 34.8814C23.8844 34.8814 23.9 34.8814 23.9157 34.8814C23.9314 34.8814 23.9471 34.8814 23.9627 34.8814C25.5929 34.8892 27.082 35.4927 28.2341 36.4724C27.1055 37.695 26.2669 39.1998 25.8358 40.8613ZM44.7473 43.9805C44.7473 45.5872 43.4385 46.896 41.8318 46.896H29.684C28.0773 46.896 26.7685 45.5872 26.7685 43.9805V43.4476C26.7685 38.5806 30.6558 34.5992 35.4914 34.4582C35.5777 34.466 35.6717 34.466 35.7579 34.466C35.8441 34.466 35.9382 34.466 36.0244 34.4582C40.86 34.5992 44.7473 38.5806 44.7473 43.4476V43.9805ZM45.68 40.8613C45.2489 39.2076 44.426 37.7263 43.3053 36.5037C44.4652 35.5005 45.97 34.8971 47.6158 34.8814C47.6315 34.8814 47.6471 34.8814 47.6628 34.8814C47.6785 34.8814 47.6942 34.8814 47.7098 34.8814C51.1348 34.9049 53.9562 37.5226 54.3089 40.8613H45.68Z" fill="#4288F3" stroke="#4288F3" stroke-width="0.8"/>
<circle cx="36" cy="36" r="35" stroke="#4288F3" stroke-width="2"/>
</svg>
