<svg width="72" height="72" viewBox="0 0 72 72" fill="none" xmlns="http://www.w3.org/2000/svg">
<circle cx="36" cy="36" r="35" stroke="#4288F3" stroke-width="2"/>
<path d="M49.295 47.8595H46.0858V32.3922C46.0858 31.7856 45.6224 31.3218 45.0163 31.3218C44.4103 31.3218 43.9468 31.7856 43.9468 32.3922V47.8595H40.8803V39.3294C40.8803 38.7228 40.4169 38.259 39.8108 38.259C39.2047 38.259 38.7413 38.7228 38.7413 39.3294V47.8595H35.7103V42.3631C35.7103 41.7565 35.2468 41.2927 34.6408 41.2927C34.0347 41.2927 33.5713 41.7565 33.5713 42.3631V47.8595H30.5402V38.0445C30.5402 37.4379 30.0768 36.974 29.4707 36.974C28.8647 36.974 28.4012 37.4379 28.4012 38.0445V47.8588H25.3327V42.7908C25.3327 42.1841 24.8692 41.7203 24.2632 41.7203C23.6571 41.7203 23.1937 42.1841 23.1937 42.7908V47.8588H19.9838C19.3777 47.8595 18.9143 48.3233 18.9143 48.9299C18.9143 49.5365 19.3777 50.0004 19.9838 50.0004H49.3305C49.9366 50.0004 50.4 49.5365 50.4 48.9299C50.4 48.3233 49.9011 47.8595 49.295 47.8595Z" fill="#4288F3"/>
<path d="M23.2998 31.923C23.5496 31.923 23.8349 31.8158 24.0486 31.6375L29.5039 26.3912L35.1735 30.8526C35.566 31.1736 36.1004 31.1736 36.4928 30.8526L44.195 24.8214L43.9452 27.9978C43.9097 28.6045 44.3376 29.1045 44.9437 29.14C44.9792 29.14 45.0147 29.14 45.0147 29.14C45.5852 29.14 46.0487 28.7117 46.0842 28.1406L46.5121 22.5732C46.5121 22.5377 46.5121 22.5022 46.5121 22.466C46.5121 22.216 46.4411 22.0021 46.2985 21.7876C46.0487 21.4666 45.6569 21.3238 45.2645 21.3948L39.5238 21.0021C38.9178 20.9665 38.4182 21.3948 38.3827 22.0015C38.3472 22.6081 38.7751 23.1081 39.3812 23.1436L42.5549 23.3574L35.8158 28.6393L30.0751 24.1068C29.6472 23.7858 29.0411 23.8213 28.6842 24.1779L22.5511 30.0663C22.1232 30.4591 22.1232 31.1368 22.5156 31.5651C22.7293 31.8158 23.0145 31.923 23.2998 31.923Z" fill="#4288F3"/>
</svg>
