<svg width="72" height="72" viewBox="0 0 72 72" fill="none" xmlns="http://www.w3.org/2000/svg">
<path d="M41.1677 41.4116C39.4686 41.4116 38.0881 42.8082 38.0881 44.5271C38.0881 46.2459 39.4686 47.6425 41.1677 47.6425C42.8667 47.6425 44.2472 46.2459 44.2472 44.5271C44.2118 42.8082 42.8313 41.4116 41.1677 41.4116ZM42.7251 44.5271C42.7251 45.3865 42.0172 46.1027 41.1677 46.1027C40.3181 46.1027 39.6102 45.3865 39.6102 44.5271C39.6102 43.6676 40.3181 42.9514 41.1677 42.9514C42.0172 42.9514 42.7251 43.6676 42.7251 44.5271Z" fill="#4288F3" stroke="#4288F3" stroke-width="0.2"/>
<path d="M30.3713 28.3409H41.6629C42.0876 28.3409 42.4062 27.9828 42.4062 27.5889C42.4062 27.1592 42.0522 26.8369 41.6629 26.8369H30.3713C29.9465 26.8369 29.6279 27.195 29.6279 27.5889C29.5925 27.9828 29.9465 28.3409 30.3713 28.3409Z" fill="#4288F3" stroke="#4288F3" stroke-width="0.2"/>
<path d="M30.3713 30.7765H41.6628C42.0876 30.7765 42.4062 30.4184 42.4062 30.0245C42.4062 29.5947 42.0522 29.2725 41.6628 29.2725H30.3713C29.9465 29.2725 29.6279 29.6306 29.6279 30.0245C29.5925 30.4542 29.9465 30.7765 30.3713 30.7765Z" fill="#4288F3" stroke="#4288F3" stroke-width="0.2"/>
<path d="M30.3713 33.2476H41.6628C42.0876 33.2476 42.4062 32.8895 42.4062 32.4956C42.4062 32.0659 42.0522 31.7437 41.6628 31.7437H30.3713C29.9465 31.7437 29.6279 32.1017 29.6279 32.4956C29.5925 32.8895 29.9465 33.2476 30.3713 33.2476Z" fill="#4288F3" stroke="#4288F3" stroke-width="0.2"/>
<path d="M30.3713 35.6822H41.6628C42.0876 35.6822 42.4062 35.3241 42.4062 34.9302C42.4062 34.5005 42.0522 34.1782 41.6628 34.1782H30.3713C29.9465 34.1782 29.6279 34.5363 29.6279 34.9302C29.5925 35.3241 29.9465 35.6822 30.3713 35.6822Z" fill="#4288F3" stroke="#4288F3" stroke-width="0.2"/>
<path d="M42.4062 37.3658C42.4062 36.9361 42.0522 36.6138 41.6628 36.6138H30.3713C29.9465 36.6138 29.6279 36.9719 29.6279 37.3658C29.6279 37.7955 29.9819 38.1178 30.3713 38.1178H41.6628C42.0522 38.1178 42.4062 37.7597 42.4062 37.3658Z" fill="#4288F3" stroke="#4288F3" stroke-width="0.2"/>
<path d="M45.9106 51.1515H26.0884C24.9203 51.1515 24 50.1847 24 49.0388V23.1128C24 21.931 24.9557 21 26.0884 21H45.9106C47.0787 21 47.999 21.9669 47.999 23.1128V49.0388C48.0344 50.2205 47.0787 51.1515 45.9106 51.1515ZM26.0884 22.9337C25.9822 22.9337 25.9114 23.0053 25.9114 23.1128V49.0388C25.9114 49.1462 25.9822 49.2178 26.0884 49.2178H45.9106C46.0168 49.2178 46.0876 49.1462 46.0876 49.0388V23.1128C46.0876 23.0053 46.0168 22.9337 45.9106 22.9337H26.0884Z" fill="#4288F3" stroke="#4288F3" stroke-width="0.2"/>
<circle cx="36" cy="36" r="35" stroke="#4288F3" stroke-width="2"/>
</svg>
