<svg width="72" height="72" viewBox="0 0 72 72" fill="none" xmlns="http://www.w3.org/2000/svg">
<circle cx="36" cy="36" r="35" stroke="#4288F3" stroke-width="2"/>
<path d="M45.1945 27.1905L46.3763 25.995C46.8194 25.5467 46.8194 24.7995 46.3763 24.3512C45.9331 23.9029 45.1945 23.9029 44.7514 24.3512L43.5696 25.5467C41.6124 23.9029 39.2489 22.8941 36.7008 22.67V20.3163H37.8086C38.4364 20.3163 38.9535 19.7933 38.9535 19.1582C38.9535 18.523 38.4364 18 37.8086 18H33.2663C32.6385 18 32.1215 18.523 32.1215 19.1582C32.1215 19.7933 32.6385 20.3163 33.2663 20.3163H34.3742V22.67C28.0224 23.2677 23 28.6476 23 35.2976C23 42.3213 28.6133 48 35.556 48C42.4987 48 48.1119 42.3213 48.1119 35.2976C48.1119 32.3088 47.0779 29.4695 45.1945 27.1905ZM35.556 45.6463C29.9058 45.6463 25.3265 41.0137 25.3265 35.2976C25.3265 29.5816 29.9058 24.9489 35.556 24.9489C41.2062 24.9489 45.7854 29.5816 45.7854 35.2976C45.7854 41.0137 41.2062 45.6463 35.556 45.6463ZM40.9107 29.8805C41.3539 30.3288 41.3539 31.076 40.9107 31.5243L36.3684 36.1195C35.9253 36.5679 35.1867 36.5679 34.7435 36.1195C34.3004 35.6712 34.3004 34.924 34.7435 34.4757L39.2858 29.8805C39.729 29.4321 40.4676 29.4321 40.9107 29.8805Z" fill="#4288F3"/>
</svg>
