<svg width="72" height="72" viewBox="0 0 72 72" fill="none" xmlns="http://www.w3.org/2000/svg">
<circle cx="36" cy="36" r="35" stroke="#4288F3" stroke-width="2"/>
<path d="M27.58 46.8C26.1987 46.8 25.0133 46.3613 24.024 45.484C23.0347 44.6067 22.2787 43.356 21.756 41.732C21.252 40.0893 21 38.12 21 35.824C21 33.5653 21.252 31.6147 21.756 29.972C22.2787 28.3293 23.0347 27.0693 24.024 26.192C25.0133 25.3147 26.1987 24.876 27.58 24.876C28.9987 24.876 30.1933 25.324 31.164 26.22C32.1533 27.0973 32.9 28.3573 33.404 30C33.9267 31.6427 34.188 33.584 34.188 35.824C34.188 38.1013 33.9267 40.0613 33.404 41.704C32.9 43.328 32.1533 44.588 31.164 45.484C30.1933 46.3613 28.9987 46.8 27.58 46.8ZM27.58 44.616C28.588 44.616 29.4187 44.2427 30.072 43.496C30.7253 42.7307 31.2107 41.6853 31.528 40.36C31.8453 39.0347 32.004 37.5227 32.004 35.824C32.004 34.144 31.836 32.6507 31.5 31.344C31.1827 30.0187 30.6973 28.9733 30.044 28.208C29.3907 27.4427 28.5693 27.06 27.58 27.06C26.5907 27.06 25.7693 27.4427 25.116 28.208C24.4813 28.9547 23.996 29.9907 23.66 31.316C23.3427 32.6413 23.184 34.144 23.184 35.824C23.184 37.5413 23.3427 39.0627 23.66 40.388C23.996 41.6947 24.4813 42.7307 25.116 43.496C25.7693 44.2427 26.5907 44.616 27.58 44.616Z" fill="#4288F3"/>
<path d="M44.0801 47.08C42.9788 47.08 41.9521 46.9213 41.0001 46.604C40.0481 46.2867 39.2268 45.8293 38.5361 45.232C37.8454 44.616 37.3228 43.8973 36.9681 43.076C36.8374 42.7773 36.8281 42.5067 36.9401 42.264C37.0708 42.0027 37.2948 41.8347 37.6121 41.76C37.8548 41.6853 38.0881 41.7133 38.3121 41.844C38.5548 41.956 38.7321 42.1427 38.8441 42.404C39.2174 43.2067 39.8708 43.8507 40.8041 44.336C41.7374 44.8213 42.8294 45.064 44.0801 45.064C45.0321 45.064 45.8721 44.9147 46.6001 44.616C47.3281 44.2987 47.8974 43.8507 48.3081 43.272C48.7374 42.6747 48.9521 41.9467 48.9521 41.088C48.9708 39.9307 48.5788 38.9413 47.7761 38.12C46.9921 37.28 45.7601 36.748 44.0801 36.524C42.7734 36.356 41.6348 36.0013 40.6641 35.46C39.6934 34.9187 38.9468 34.228 38.4241 33.388C37.9014 32.548 37.6401 31.5867 37.6401 30.504C37.6401 29.3653 37.9294 28.3947 38.5081 27.592C39.1054 26.7893 39.9081 26.1733 40.9161 25.744C41.9428 25.3147 43.0908 25.1 44.3601 25.1C45.3681 25.1 46.2641 25.2587 47.0481 25.576C47.8508 25.8747 48.5414 26.2853 49.1201 26.808C49.6988 27.3307 50.1654 27.9093 50.5201 28.544C50.6881 28.8427 50.7441 29.132 50.6881 29.412C50.6508 29.6733 50.5014 29.8693 50.2401 30C50.0161 30.1493 49.7641 30.1773 49.4841 30.084C49.2228 29.9907 49.0174 29.8227 48.8681 29.58C48.4948 28.9267 47.9534 28.348 47.2441 27.844C46.5348 27.34 45.5734 27.088 44.3601 27.088C42.9601 27.0693 41.8401 27.3493 41.0001 27.928C40.1601 28.5067 39.7401 29.384 39.7401 30.56C39.7401 31.176 39.8708 31.764 40.1321 32.324C40.4121 32.884 40.8974 33.3787 41.5881 33.808C42.2788 34.2373 43.2494 34.5453 44.5001 34.732C46.6468 35.0493 48.2801 35.7493 49.4001 36.832C50.5388 37.896 51.1081 39.296 51.1081 41.032C51.1081 42.0027 50.9214 42.8613 50.5481 43.608C50.1934 44.3547 49.6988 44.9893 49.0641 45.512C48.4294 46.0347 47.6828 46.4267 46.8241 46.688C45.9654 46.9493 45.0508 47.08 44.0801 47.08ZM44.2761 49.572C44.0708 49.572 43.8934 49.4973 43.7441 49.348C43.6134 49.2173 43.5481 49.0307 43.5481 48.788V23.784C43.5481 23.5227 43.6134 23.3267 43.7441 23.196C43.8934 23.0653 44.0708 23 44.2761 23C44.4628 23 44.6214 23.0653 44.7521 23.196C44.9014 23.3267 44.9761 23.5227 44.9761 23.784V48.788C44.9761 49.0307 44.9014 49.2173 44.7521 49.348C44.6214 49.4973 44.4628 49.572 44.2761 49.572Z" fill="#4288F3"/>
<path d="M27.58 46.8C26.1987 46.8 25.0133 46.3613 24.024 45.484C23.0347 44.6067 22.2787 43.356 21.756 41.732C21.252 40.0893 21 38.12 21 35.824C21 33.5653 21.252 31.6147 21.756 29.972C22.2787 28.3293 23.0347 27.0693 24.024 26.192C25.0133 25.3147 26.1987 24.876 27.58 24.876C28.9987 24.876 30.1933 25.324 31.164 26.22C32.1533 27.0973 32.9 28.3573 33.404 30C33.9267 31.6427 34.188 33.584 34.188 35.824C34.188 38.1013 33.9267 40.0613 33.404 41.704C32.9 43.328 32.1533 44.588 31.164 45.484C30.1933 46.3613 28.9987 46.8 27.58 46.8ZM27.58 44.616C28.588 44.616 29.4187 44.2427 30.072 43.496C30.7253 42.7307 31.2107 41.6853 31.528 40.36C31.8453 39.0347 32.004 37.5227 32.004 35.824C32.004 34.144 31.836 32.6507 31.5 31.344C31.1827 30.0187 30.6973 28.9733 30.044 28.208C29.3907 27.4427 28.5693 27.06 27.58 27.06C26.5907 27.06 25.7693 27.4427 25.116 28.208C24.4813 28.9547 23.996 29.9907 23.66 31.316C23.3427 32.6413 23.184 34.144 23.184 35.824C23.184 37.5413 23.3427 39.0627 23.66 40.388C23.996 41.6947 24.4813 42.7307 25.116 43.496C25.7693 44.2427 26.5907 44.616 27.58 44.616Z" stroke="#4288F3" stroke-width="0.4"/>
<path d="M44.0801 47.08C42.9788 47.08 41.9521 46.9213 41.0001 46.604C40.0481 46.2867 39.2268 45.8293 38.5361 45.232C37.8454 44.616 37.3228 43.8973 36.9681 43.076C36.8374 42.7773 36.8281 42.5067 36.9401 42.264C37.0708 42.0027 37.2948 41.8347 37.6121 41.76C37.8548 41.6853 38.0881 41.7133 38.3121 41.844C38.5548 41.956 38.7321 42.1427 38.8441 42.404C39.2174 43.2067 39.8708 43.8507 40.8041 44.336C41.7374 44.8213 42.8294 45.064 44.0801 45.064C45.0321 45.064 45.8721 44.9147 46.6001 44.616C47.3281 44.2987 47.8974 43.8507 48.3081 43.272C48.7374 42.6747 48.9521 41.9467 48.9521 41.088C48.9708 39.9307 48.5788 38.9413 47.7761 38.12C46.9921 37.28 45.7601 36.748 44.0801 36.524C42.7734 36.356 41.6348 36.0013 40.6641 35.46C39.6934 34.9187 38.9468 34.228 38.4241 33.388C37.9014 32.548 37.6401 31.5867 37.6401 30.504C37.6401 29.3653 37.9294 28.3947 38.5081 27.592C39.1054 26.7893 39.9081 26.1733 40.9161 25.744C41.9428 25.3147 43.0908 25.1 44.3601 25.1C45.3681 25.1 46.2641 25.2587 47.0481 25.576C47.8508 25.8747 48.5414 26.2853 49.1201 26.808C49.6988 27.3307 50.1654 27.9093 50.5201 28.544C50.6881 28.8427 50.7441 29.132 50.6881 29.412C50.6508 29.6733 50.5014 29.8693 50.2401 30C50.0161 30.1493 49.7641 30.1773 49.4841 30.084C49.2228 29.9907 49.0174 29.8227 48.8681 29.58C48.4948 28.9267 47.9534 28.348 47.2441 27.844C46.5348 27.34 45.5734 27.088 44.3601 27.088C42.9601 27.0693 41.8401 27.3493 41.0001 27.928C40.1601 28.5067 39.7401 29.384 39.7401 30.56C39.7401 31.176 39.8708 31.764 40.1321 32.324C40.4121 32.884 40.8974 33.3787 41.5881 33.808C42.2788 34.2373 43.2494 34.5453 44.5001 34.732C46.6468 35.0493 48.2801 35.7493 49.4001 36.832C50.5388 37.896 51.1081 39.296 51.1081 41.032C51.1081 42.0027 50.9214 42.8613 50.5481 43.608C50.1934 44.3547 49.6988 44.9893 49.0641 45.512C48.4294 46.0347 47.6828 46.4267 46.8241 46.688C45.9654 46.9493 45.0508 47.08 44.0801 47.08ZM44.2761 49.572C44.0708 49.572 43.8934 49.4973 43.7441 49.348C43.6134 49.2173 43.5481 49.0307 43.5481 48.788V23.784C43.5481 23.5227 43.6134 23.3267 43.7441 23.196C43.8934 23.0653 44.0708 23 44.2761 23C44.4628 23 44.6214 23.0653 44.7521 23.196C44.9014 23.3267 44.9761 23.5227 44.9761 23.784V48.788C44.9761 49.0307 44.9014 49.2173 44.7521 49.348C44.6214 49.4973 44.4628 49.572 44.2761 49.572Z" stroke="#4288F3" stroke-width="0.4"/>
</svg>
