<svg width="72" height="72" viewBox="0 0 72 72" fill="none" xmlns="http://www.w3.org/2000/svg">
<circle cx="36" cy="36" r="35" stroke="#4288F3" stroke-width="2"/>
<path d="M48.6732 33.2809V31.408C48.6732 24.5797 43.0876 19 36.252 19C29.4165 19 23.8309 24.5797 23.8309 31.408V33.2809H23.5574C21.6044 33.2809 20.0029 34.9978 20.0029 37.1048V42.4504C19.9639 43.4259 20.3154 44.3233 20.9794 45.0256C21.6435 45.728 22.5419 46.1182 23.5574 46.1572H26.7213C27.3072 46.1182 27.7369 45.6499 27.6978 45.0256V34.5686C27.6978 33.9443 27.3072 33.32 26.6823 33.32H25.9792V31.447C25.9792 25.7893 30.5883 21.2241 36.213 21.2241C41.8767 21.2241 46.4468 25.8283 46.4468 31.447V33.32H45.7437C45.1187 33.32 44.7281 33.9443 44.7281 34.5686V45.0256C44.6891 45.2988 44.7672 45.5719 44.9625 45.806C45.1187 46.0401 45.3922 46.1572 45.6656 46.1962H46.2515C45.0406 47.6399 43.2438 48.4983 41.3689 48.5373C41.0955 47.4448 40.4315 46.5084 39.494 45.8841C38.5175 45.2207 37.3067 44.9866 36.1349 45.2207C34.0647 45.6499 32.5804 47.4448 32.5804 49.5518C32.6194 52.01 34.6115 54 37.0723 54C38.2832 53.961 39.455 53.4928 40.3143 52.5953C40.8612 52.049 41.2127 51.3467 41.3689 50.6054C44.025 50.5663 46.564 49.2787 48.1654 47.1327L48.9076 46.0401C50.7825 45.8841 51.9934 44.6355 51.9934 42.8796V37.534C52.1105 35.544 50.6653 33.359 48.6732 33.2809ZM49.9232 37.495V42.8406C49.9232 43.816 48.9466 43.9331 48.517 43.9331H46.9546V35.427H48.517C49.2982 35.427 49.9232 36.5585 49.9232 37.495ZM25.5495 35.427V43.9331H23.5574C23.1668 43.9331 22.8153 43.777 22.5419 43.5039C22.2684 43.2308 22.1513 42.8796 22.1513 42.4114V37.0658C22.1513 36.1683 22.7762 35.427 23.5574 35.427H25.5495ZM39.4159 49.5128C39.455 50.0981 39.2206 50.6444 38.83 51.0346C38.4004 51.5028 37.7754 51.7759 37.1504 51.7759C35.8614 51.7369 34.8459 50.7614 34.8068 49.4738C34.8068 48.2252 35.8224 47.1717 37.1114 47.1717C37.7363 47.1717 38.2832 47.4058 38.7128 47.835C39.1816 48.3032 39.4159 48.8885 39.4159 49.5128Z" fill="#4288F3"/>
</svg>
